<svg width="264" height="132" viewBox="0 0 264 132" fill="none" xmlns="http://www.w3.org/2000/svg">
<path d="M88.8639 109.622C85.4691 109.622 82.4449 108.939 79.7915 107.574C77.1381 106.169 75.0504 104.237 73.5286 101.779C72.0458 99.3208 71.3044 96.5307 71.3044 93.4091C71.3044 90.2484 72.0458 87.4583 73.5286 85.039C75.0504 82.5807 77.1381 80.6687 79.7915 79.3029C82.4449 77.8982 85.4691 77.1958 88.8639 77.1958C92.1807 77.1958 95.0682 77.8982 97.5266 79.3029C99.9849 80.6687 101.799 82.6392 102.97 85.2146L95.8877 89.0192C95.0682 87.5364 94.0342 86.4438 92.7855 85.7414C91.5759 85.039 90.2491 84.6879 88.8054 84.6879C87.2445 84.6879 85.8398 85.039 84.5911 85.7414C83.3424 86.4438 82.3474 87.4388 81.606 88.7265C80.9036 90.0142 80.5524 91.5751 80.5524 93.4091C80.5524 95.2431 80.9036 96.8039 81.606 98.0916C82.3474 99.3793 83.3424 100.374 84.5911 101.077C85.8398 101.779 87.2445 102.13 88.8054 102.13C90.2491 102.13 91.5759 101.799 92.7855 101.135C94.0342 100.433 95.0682 99.3208 95.8877 97.7989L102.97 101.662C101.799 104.198 99.9849 106.169 97.5266 107.574C95.0682 108.939 92.1807 109.622 88.8639 109.622ZM105.301 109.154V77.6641H114.022V86.5609L112.793 83.9855C113.729 81.7613 115.232 80.0834 117.3 78.9518C119.368 77.7811 121.885 77.1958 124.85 77.1958V85.6244C124.46 85.5853 124.109 85.5658 123.797 85.5658C123.485 85.5268 123.153 85.5073 122.802 85.5073C120.304 85.5073 118.275 86.2292 116.714 87.673C115.193 89.0777 114.432 91.2824 114.432 94.287V109.154H105.301ZM127.41 109.154V77.6641H136.541V109.154H127.41ZM131.976 73.2742C130.298 73.2742 128.932 72.7864 127.878 71.8109C126.825 70.8354 126.298 69.6257 126.298 68.1819C126.298 66.7382 126.825 65.5285 127.878 64.553C128.932 63.5774 130.298 63.0897 131.976 63.0897C133.654 63.0897 135.019 63.5579 136.073 64.4944C137.126 65.3919 137.653 66.5626 137.653 68.0063C137.653 69.5282 137.126 70.7963 136.073 71.8109C135.058 72.7864 133.693 73.2742 131.976 73.2742ZM157.307 109.622C153.912 109.622 150.888 108.939 148.235 107.574C145.581 106.169 143.494 104.237 141.972 101.779C140.489 99.3208 139.748 96.5307 139.748 93.4091C139.748 90.2484 140.489 87.4583 141.972 85.039C143.494 82.5807 145.581 80.6687 148.235 79.3029C150.888 77.8982 153.912 77.1958 157.307 77.1958C160.624 77.1958 163.511 77.8982 165.97 79.3029C168.428 80.6687 170.243 82.6392 171.413 85.2146L164.331 89.0192C163.511 87.5364 162.477 86.4438 161.229 85.7414C160.019 85.039 158.692 84.6879 157.248 84.6879C155.688 84.6879 154.283 85.039 153.034 85.7414C151.786 86.4438 150.79 87.4388 150.049 88.7265C149.347 90.0142 148.996 91.5751 148.996 93.4091C148.996 95.2431 149.347 96.8039 150.049 98.0916C150.79 99.3793 151.786 100.374 153.034 101.077C154.283 101.779 155.688 102.13 157.248 102.13C158.692 102.13 160.019 101.799 161.229 101.135C162.477 100.433 163.511 99.3208 164.331 97.7989L171.413 101.662C170.243 104.198 168.428 106.169 165.97 107.574C163.511 108.939 160.624 109.622 157.307 109.622ZM181.123 102.716L181.357 91.5946L196.049 77.6641H206.935L192.829 92.0043L188.088 95.8674L181.123 102.716ZM173.572 109.154V65.7236H182.703V109.154H173.572ZM197.044 109.154L186.391 95.9259L192.127 88.8436L208.106 109.154H197.044ZM223.599 109.622C220.009 109.622 216.848 108.92 214.117 107.515C211.425 106.11 209.337 104.198 207.854 101.779C206.371 99.3208 205.63 96.5307 205.63 93.4091C205.63 90.2484 206.352 87.4583 207.796 85.039C209.278 82.5807 211.288 80.6687 213.824 79.3029C216.361 77.8982 219.229 77.1958 222.428 77.1958C225.511 77.1958 228.282 77.8592 230.74 79.1859C233.237 80.4736 235.208 82.3466 236.652 84.8049C238.095 87.2242 238.817 90.1313 238.817 93.5261C238.817 93.8773 238.798 94.287 238.759 94.7553C238.72 95.1845 238.681 95.5942 238.642 95.9845H213.063V90.6581H233.842L230.33 92.2384C230.33 90.5995 229.999 89.1753 229.335 87.9656C228.672 86.756 227.755 85.8195 226.584 85.1561C225.414 84.4537 224.048 84.1025 222.487 84.1025C220.926 84.1025 219.541 84.4537 218.331 85.1561C217.161 85.8195 216.244 86.7755 215.58 88.0242C214.917 89.2338 214.585 90.6776 214.585 92.3555V93.7603C214.585 95.4772 214.956 96.999 215.697 98.3257C216.478 99.6134 217.551 100.608 218.917 101.311C220.321 101.974 221.96 102.306 223.833 102.306C225.511 102.306 226.974 102.052 228.223 101.545C229.511 101.038 230.681 100.277 231.735 99.2622L236.593 104.53C235.149 106.169 233.335 107.437 231.15 108.335C228.965 109.193 226.448 109.622 223.599 109.622ZM254.847 109.622C251.14 109.622 248.252 108.686 246.184 106.813C244.116 104.901 243.082 102.072 243.082 98.3257V70.6988H252.213V98.2087C252.213 99.5354 252.564 100.569 253.266 101.311C253.969 102.013 254.925 102.364 256.134 102.364C257.578 102.364 258.807 101.974 259.822 101.194L262.28 107.632C261.344 108.296 260.212 108.803 258.885 109.154C257.598 109.466 256.252 109.622 254.847 109.622ZM238.224 85.3902V78.3664H260.056V85.3902H238.224Z" fill="black"/>
<path d="M14.257 87.5184L0.946716 69.0446L10.241 59.9799L32.9789 105.453L77.7103 1.11635L96.2988 14.1971L30.7801 110.582L14.257 87.5184Z" fill="url(#paint0_linear_76_10756)"/>
<path d="M30.7801 110.582L14.257 87.5184L0.946716 69.0447L10.241 59.9799L32.9789 105.453L30.7801 110.582ZM30.7801 110.582L77.7103 1.11635L96.2988 14.1971L30.7801 110.582Z" stroke="#6028FF" stroke-width="0.229488"/>
<defs>
<linearGradient id="paint0_linear_76_10756" x1="48.6228" y1="1.11635" x2="48.6228" y2="109.664" gradientUnits="userSpaceOnUse">
<stop stop-color="#7F30CE"/>
<stop offset="1" stop-color="#7C63DF"/>
</linearGradient>
</defs>
</svg>
