<svg width="472" height="85" viewBox="0 0 472 85" fill="none" xmlns="http://www.w3.org/2000/svg">
<path d="M76.426 11.385L51.397 84H25.544L0.412 11.385H22.042L38.522 63.812L54.899 11.385H76.426ZM107.333 84.721C102.115 84.721 97.4452 83.8627 93.3252 82.146C89.2739 80.3607 86.0466 77.9573 83.6432 74.936C81.3086 71.846 80.0039 68.3783 79.7292 64.533H99.2992C99.5739 66.387 100.432 67.829 101.874 68.859C103.316 69.889 105.102 70.404 107.23 70.404C108.878 70.404 110.183 70.0607 111.144 69.374C112.106 68.6873 112.586 67.7947 112.586 66.696C112.586 65.254 111.797 64.1897 110.217 63.503C108.638 62.8163 106.029 62.061 102.389 61.237C98.2692 60.413 94.8359 59.486 92.0892 58.456C89.3426 57.426 86.9392 55.7437 84.8792 53.409C82.8879 51.0743 81.8922 47.9157 81.8922 43.933C81.8922 40.4997 82.8192 37.4097 84.6732 34.663C86.5272 31.8477 89.2396 29.616 92.8102 27.968C96.4496 26.32 100.81 25.496 105.891 25.496C113.445 25.496 119.384 27.35 123.71 31.058C128.036 34.766 130.543 39.6413 131.229 45.684H112.998C112.655 43.83 111.831 42.4223 110.526 41.461C109.29 40.431 107.608 39.916 105.479 39.916C103.831 39.916 102.561 40.225 101.668 40.843C100.844 41.461 100.432 42.3193 100.432 43.418C100.432 44.7913 101.222 45.8557 102.801 46.611C104.381 47.2977 106.921 48.0187 110.423 48.774C114.612 49.6667 118.08 50.6623 120.826 51.761C123.642 52.8597 126.079 54.645 128.139 57.117C130.268 59.5203 131.332 62.8163 131.332 67.005C131.332 70.3697 130.337 73.391 128.345 76.069C126.423 78.747 123.642 80.8757 120.002 82.455C116.432 83.9657 112.209 84.721 107.333 84.721ZM175.35 66.799V84H166.595C151.832 84 144.45 76.687 144.45 62.061V43.006H137.343V26.217H144.45V12.209H164.741V26.217H175.247V43.006H164.741V62.37C164.741 63.9493 165.085 65.0823 165.771 65.769C166.527 66.4557 167.763 66.799 169.479 66.799H175.35ZM243.732 26.217V84H223.441V75.76C221.724 78.3693 219.355 80.498 216.334 82.146C213.312 83.7253 209.845 84.515 205.931 84.515C199.201 84.515 193.88 82.3177 189.966 77.923C186.12 73.4597 184.198 67.417 184.198 59.795V26.217H204.283V57.22C204.283 60.516 205.141 63.1253 206.858 65.048C208.643 66.902 210.978 67.829 213.862 67.829C216.814 67.829 219.149 66.902 220.866 65.048C222.582 63.1253 223.441 60.516 223.441 57.22V26.217H243.732ZM251.925 55.057C251.925 49.083 252.989 43.8643 255.118 39.401C257.315 34.9377 260.302 31.5043 264.079 29.101C267.856 26.6977 272.044 25.496 276.645 25.496C280.353 25.496 283.649 26.2857 286.533 27.865C289.486 29.3757 291.786 31.47 293.434 34.148V7.78H313.725V84H293.434V75.966C291.855 78.644 289.623 80.7727 286.739 82.352C283.855 83.9313 280.456 84.721 276.542 84.721C271.941 84.721 267.753 83.5193 263.976 81.116C260.268 78.7127 257.315 75.2793 255.118 70.816C252.989 66.284 251.925 61.031 251.925 55.057ZM293.537 55.057C293.537 51.349 292.507 48.4307 290.447 46.302C288.456 44.1733 285.984 43.109 283.031 43.109C280.01 43.109 277.503 44.1733 275.512 46.302C273.521 48.362 272.525 51.2803 272.525 55.057C272.525 58.765 273.521 61.7177 275.512 63.915C277.503 66.0437 280.01 67.108 283.031 67.108C285.984 67.108 288.456 66.0437 290.447 63.915C292.507 61.7863 293.537 58.8337 293.537 55.057ZM335.426 20.861C331.855 20.861 328.971 19.8997 326.774 17.977C324.645 15.9857 323.581 13.5137 323.581 10.561C323.581 7.53966 324.645 5.03333 326.774 3.042C328.971 1.05066 331.855 0.0549941 335.426 0.0549941C338.928 0.0549941 341.743 1.05066 343.872 3.042C346.069 5.03333 347.168 7.53966 347.168 10.561C347.168 13.5137 346.069 15.9857 343.872 17.977C341.743 19.8997 338.928 20.861 335.426 20.861ZM345.417 26.217V84H325.229V26.217H345.417ZM383.797 84.721C378.029 84.721 372.844 83.5193 368.244 81.116C363.712 78.7127 360.141 75.2793 357.532 70.816C354.922 66.3527 353.618 61.0997 353.618 55.057C353.618 49.083 354.922 43.8643 357.532 39.401C360.21 34.9377 363.815 31.5043 368.347 29.101C372.947 26.6977 378.132 25.496 383.9 25.496C389.668 25.496 394.818 26.6977 399.35 29.101C403.95 31.5043 407.555 34.9377 410.165 39.401C412.843 43.8643 414.182 49.083 414.182 55.057C414.182 61.031 412.843 66.284 410.165 70.816C407.555 75.2793 403.95 78.7127 399.35 81.116C394.749 83.5193 389.565 84.721 383.797 84.721ZM383.797 67.211C386.612 67.211 388.947 66.181 390.801 64.121C392.723 61.9923 393.685 58.971 393.685 55.057C393.685 51.143 392.723 48.156 390.801 46.096C388.947 44.036 386.646 43.006 383.9 43.006C381.153 43.006 378.853 44.036 376.999 46.096C375.145 48.156 374.218 51.143 374.218 55.057C374.218 59.0397 375.11 62.061 376.896 64.121C378.681 66.181 380.981 67.211 383.797 67.211ZM447.012 84.721C441.793 84.721 437.124 83.8627 433.004 82.146C428.953 80.3607 425.725 77.9573 423.322 74.936C420.987 71.846 419.683 68.3783 419.408 64.533H438.978C439.253 66.387 440.111 67.829 441.553 68.859C442.995 69.889 444.78 70.404 446.909 70.404C448.557 70.404 449.862 70.0607 450.823 69.374C451.784 68.6873 452.265 67.7947 452.265 66.696C452.265 65.254 451.475 64.1897 449.896 63.503C448.317 62.8163 445.707 62.061 442.068 61.237C437.948 60.413 434.515 59.486 431.768 58.456C429.021 57.426 426.618 55.7437 424.558 53.409C422.567 51.0743 421.571 47.9157 421.571 43.933C421.571 40.4997 422.498 37.4097 424.352 34.663C426.206 31.8477 428.918 29.616 432.489 27.968C436.128 26.32 440.489 25.496 445.57 25.496C453.123 25.496 459.063 27.35 463.389 31.058C467.715 34.766 470.221 39.6413 470.908 45.684H452.677C452.334 43.83 451.51 42.4223 450.205 41.461C448.969 40.431 447.287 39.916 445.158 39.916C443.51 39.916 442.24 40.225 441.347 40.843C440.523 41.461 440.111 42.3193 440.111 43.418C440.111 44.7913 440.901 45.8557 442.48 46.611C444.059 47.2977 446.6 48.0187 450.102 48.774C454.291 49.6667 457.758 50.6623 460.505 51.761C463.32 52.8597 465.758 54.645 467.818 57.117C469.947 59.5203 471.011 62.8163 471.011 67.005C471.011 70.3697 470.015 73.391 468.024 76.069C466.101 78.747 463.32 80.8757 459.681 82.455C456.11 83.9657 451.887 84.721 447.012 84.721Z" fill="white"/>
</svg>
